<?xml version="1.0" standalone="no"?>
<!DOCTYPE svg PUBLIC "-//W3C//DTD SVG 20010904//EN"
 "http://www.w3.org/TR/2001/REC-SVG-20010904/DTD/svg10.dtd">
<svg version="1.0" xmlns="http://www.w3.org/2000/svg"
 width="1024.000000pt" height="1024.000000pt" viewBox="0 0 1024.000000 1024.000000"
 preserveAspectRatio="xMidYMid meet">
<metadata>
Created by potrace 1.16, written by Peter Selinger 2001-2019
</metadata>
<g transform="translate(0.000000,1024.000000) scale(0.100000,-0.100000)"
fill="#000000" stroke="none">
<path d="M4875 7343 c-131 -17 -363 -79 -499 -133 -95 -37 -275 -127 -362
-181 -275 -168 -582 -481 -753 -766 -239 -402 -333 -865 -270 -1333 39 -288
159 -600 330 -857 98 -147 164 -228 299 -364 330 -333 755 -552 1195 -614 135
-20 460 -19 590 0 637 96 1173 439 1528 975 249 377 362 809 336 1280 -16 278
-107 590 -247 844 -177 322 -464 630 -761 816 -262 163 -578 282 -864 324 -99
15 -434 21 -522 9z m520 -316 c276 -52 501 -144 741 -306 153 -103 262 -197
369 -318 215 -245 358 -529 426 -848 21 -98 24 -137 24 -345 0 -210 -2 -246
-23 -339 -100 -443 -365 -857 -719 -1120 -249 -185 -547 -309 -850 -353 -130
-19 -416 -16 -538 6 -135 24 -344 94 -478 161 -114 57 -299 175 -377 239 -287
238 -518 586 -624 937 -51 171 -70 368 -56 594 14 232 59 408 159 621 227 480
714 891 1226 1034 178 49 268 60 465 55 96 -2 211 -10 255 -18z"/>
<path d="M5440 5900 c0 -13 -7 -20 -20 -20 -13 0 -20 -7 -20 -20 0 -19 -7 -20
-100 -20 -93 0 -100 -1 -100 -20 0 -17 -7 -20 -40 -20 -22 0 -40 -4 -40 -10 0
-6 -26 -10 -59 -10 -33 0 -61 -4 -63 -10 -1 -5 -47 -12 -100 -16 -72 -5 -98
-11 -98 -20 0 -11 -19 -14 -80 -14 -73 0 -80 -2 -80 -20 0 -13 -7 -20 -20 -20
-13 0 -20 -7 -20 -20 0 -17 -7 -20 -40 -20 -33 0 -40 -3 -40 -20 0 -18 -7 -20
-60 -20 -53 0 -60 -2 -60 -20 0 -18 -7 -20 -60 -20 -53 0 -60 -2 -60 -20 0
-18 -7 -20 -60 -20 -53 0 -60 -2 -60 -20 0 -17 -7 -20 -40 -20 -33 0 -40 -3
-40 -20 0 -19 -7 -20 -120 -20 -113 0 -120 1 -120 20 0 17 -7 20 -40 20 -33 0
-40 3 -40 20 0 18 -7 20 -80 20 -73 0 -80 2 -80 20 0 17 -7 20 -40 20 -33 0
-40 -3 -40 -20 0 -22 -40 -29 -40 -7 0 6 -5 4 -11 -6 -6 -11 -9 -128 -7 -325
3 -298 4 -309 27 -359 30 -67 105 -138 161 -153 24 -6 75 -12 113 -13 58 -2
72 1 81 16 95 158 253 344 339 400 15 9 27 25 28 35 0 9 3 12 5 5 6 -14 81 34
76 49 -1 5 1 7 5 5 13 -8 66 18 96 48 15 15 30 25 33 22 4 -3 52 17 108 45 55
28 140 68 189 88 48 20 85 39 82 41 -2 3 4 5 14 6 33 3 161 65 154 76 -3 6 -1
7 6 3 6 -4 28 -2 49 5 20 7 31 14 25 16 -7 3 -13 9 -13 14 0 6 6 7 17 1 9 -6
24 -6 32 -2 9 5 55 23 104 41 59 22 83 36 75 42 -9 5 -6 6 8 2 12 -3 47 5 80
19 33 13 74 29 91 36 18 7 30 17 26 23 -3 5 -1 7 5 3 12 -7 62 13 62 26 0 5 6
6 13 2 6 -4 5 1 -4 10 -15 16 -15 21 3 58 22 45 18 68 -12 68 -13 0 -20 7 -20
20 0 17 -7 20 -40 20 -33 0 -40 -3 -40 -20z"/>
<path d="M6400 5560 l0 -40 -40 3 c-22 1 -40 5 -40 10 0 4 5 7 12 7 9 0 9 3 1
11 -20 20 -35 -1 -28 -37 5 -27 3 -34 -10 -34 -8 0 -15 7 -15 15 0 21 -13 19
-30 -5 -8 -11 -20 -20 -27 -20 -7 0 -13 -5 -13 -11 0 -6 -7 -18 -16 -27 -15
-15 -16 -14 -9 8 7 23 6 24 -9 11 -9 -8 -16 -10 -15 -5 4 21 -2 24 -17 10 -8
-9 -21 -16 -27 -16 -7 0 1 11 16 24 17 15 35 22 44 19 11 -4 14 -2 9 5 -12 19
-26 14 -75 -25 -53 -42 -72 -59 -54 -49 6 3 14 2 18 -3 3 -6 -4 -8 -17 -6 -13
3 -34 -5 -52 -18 -80 -59 -296 -167 -556 -277 -506 -213 -695 -295 -743 -324
-59 -35 -111 -99 -127 -154 -6 -22 -10 -185 -10 -413 0 -417 3 -442 63 -521
20 -27 55 -54 92 -73 l59 -30 290 -3 c384 -4 448 7 528 96 69 76 69 79 71 558
l2 429 455 5 c452 5 455 5 502 28 27 13 64 42 83 65 60 70 65 106 63 411 -1
202 -4 242 -8 156 -4 -79 -7 -95 -8 -52 -2 55 -5 65 -22 69 -19 5 -25 29 -23
108 0 11 -6 25 -13 33 -8 7 -14 20 -14 28 0 8 -11 20 -25 26 -14 6 -25 19 -25
30 0 16 -10 18 -120 18 l-120 0 0 -40z"/>
</g>
</svg>
